<svg id="_0161_quality_check" xmlns="http://www.w3.org/2000/svg" viewBox="0 0 500 500" data-imageid="quality-check-42" imageName="Quality Check" class="illustrations_image" style="width: 188px;"><defs><style>.cls-1_quality-check-42{fill:#fff;}.cls-2_quality-check-42{opacity:.19;}.cls-2_quality-check-42,.cls-3_quality-check-42,.cls-4_quality-check-42,.cls-5_quality-check-42,.cls-6_quality-check-42,.cls-7_quality-check-42,.cls-8_quality-check-42,.cls-9_quality-check-42,.cls-10_quality-check-42,.cls-11_quality-check-42{fill:none;}.cls-12_quality-check-42{fill:#f4a28c;}.cls-3_quality-check-42{opacity:.46;}.cls-13_quality-check-42{fill:#a5a5a5;}.cls-4_quality-check-42{opacity:.58;}.cls-5_quality-check-42{opacity:.18;}.cls-14_quality-check-42{fill:#ce8172;}.cls-6_quality-check-42{opacity:.44;}.cls-15_quality-check-42{fill:#e6e6e6;}.cls-7_quality-check-42{opacity:.03;}.cls-8_quality-check-42{opacity:.73;}.cls-9_quality-check-42{opacity:.08;}.cls-10_quality-check-42{opacity:.31;}.cls-11_quality-check-42{opacity:.79;}.cls-16_quality-check-42{fill:#24285b;}.cls-17_quality-check-42{fill:#000001;}.cls-18_quality-check-42{fill:#ffd200;}.cls-19_quality-check-42{fill:#68e1fd;}</style></defs><g id="checks_quality-check-42"><g class="cls-6_quality-check-42"><rect class="cls-15_quality-check-42" x="49.89" y="31.82" width="182.71" height="132.66"/></g><rect class="cls-13_quality-check-42" x="78.65" y="59.78" width="26.51" height="26.51"/><rect class="cls-13_quality-check-42" x="78.65" y="110.32" width="26.51" height="26.51"/><path class="cls-1_quality-check-42" d="m90.11,78.81c-.06,0-.12,0-.18-.02-.32-.06-.59-.27-.73-.57l-2.75-6.07c-.23-.5,0-1.1.5-1.32.5-.23,1.1,0,1.32.5l2.16,4.77,7.92-7.8c.39-.39,1.03-.38,1.41.01.39.39.38,1.03-.01,1.41l-8.94,8.8c-.19.19-.44.29-.7.29Z"/><path class="cls-1_quality-check-42" d="m90.11,129.52c-.06,0-.12,0-.18-.02-.32-.06-.59-.27-.73-.57l-2.75-6.07c-.23-.5,0-1.1.5-1.32.5-.23,1.1,0,1.32.5l2.16,4.77,7.92-7.8c.39-.39,1.03-.38,1.41.01.39.39.38,1.03-.01,1.41l-8.94,8.8c-.19.19-.44.29-.7.29Z"/><g class="cls-2_quality-check-42"><rect class="cls-13_quality-check-42" x="116.86" y="64.8" width="87.13" height="14.26"/></g><g class="cls-5_quality-check-42"><rect class="cls-13_quality-check-42" x="116.86" y="114.82" width="87.13" height="14.26"/></g></g><g id="sd_quality-check-42" class="cls-7_quality-check-42"><ellipse class="cls-17_quality-check-42" cx="229.79" cy="445.52" rx="213.49" ry="22.66"/></g><g id="locker_quality-check-42"><g class="cls-11_quality-check-42"><rect class="cls-13_quality-check-42" x="75.46" y="274.18" width="105.9" height="168.71"/></g><rect class="cls-15_quality-check-42" x="121.68" y="274.18" width="91.61" height="168.71"/><rect class="cls-15_quality-check-42" x="136.18" y="373.19" width="93.33" height="46.02"/><circle class="cls-13_quality-check-42" cx="184.25" cy="394.36" r="6.46"/><g class="cls-4_quality-check-42"><path class="cls-19_quality-check-42 targetColor" d="m57.7,419.11s-18.73-5.03-22.87-22.43c0,0,28.96-5.98,29.92,23.94l-7.04-1.51Z" style="fill: rgb(104, 225, 253);"/></g><g class="cls-8_quality-check-42"><path class="cls-19_quality-check-42 targetColor" d="m59.99,417.25s-13.16-20.61-1.74-39.98c0,0,22.1,13.91,12.42,39.98h-10.68Z" style="fill: rgb(104, 225, 253);"/></g><path class="cls-19_quality-check-42 targetColor" d="m63.36,417.25s6.82-21.85,27.67-26.07c0,0,3.97,14.15-13.41,26.07h-14.27Z" style="fill: rgb(104, 225, 253);"/><polygon class="cls-16_quality-check-42" points="49.79 416.81 53.69 442.75 77.57 442.75 80.99 416.81 49.79 416.81"/><g class="cls-11_quality-check-42"><rect class="cls-13_quality-check-42" x="75.46" y="274.18" width="105.9" height="168.71"/></g><rect class="cls-15_quality-check-42" x="121.68" y="274.18" width="91.61" height="168.71"/><rect class="cls-15_quality-check-42" x="136.18" y="373.19" width="93.33" height="46.02"/><g class="cls-3_quality-check-42"><rect class="cls-1_quality-check-42" x="136.18" y="373.19" width="93.33" height="46.02"/></g><circle class="cls-13_quality-check-42" cx="184.25" cy="394.36" r="6.46"/><g class="cls-11_quality-check-42"><rect class="cls-13_quality-check-42" x="134.04" y="304.61" width="93.33" height="46.02"/></g><rect class="cls-15_quality-check-42" x="153.55" y="304.61" width="93.33" height="46.02"/><g class="cls-3_quality-check-42"><rect class="cls-1_quality-check-42" x="153.55" y="304.61" width="93.33" height="46.02"/></g><circle class="cls-13_quality-check-42" cx="201.62" cy="325.78" r="6.46"/><g class="cls-4_quality-check-42"><path class="cls-19_quality-check-42 targetColor" d="m57.7,419.11s-18.73-5.03-22.87-22.43c0,0,28.96-5.98,29.92,23.94l-7.04-1.51Z" style="fill: rgb(104, 225, 253);"/></g><g class="cls-8_quality-check-42"><path class="cls-19_quality-check-42 targetColor" d="m59.99,417.25s-13.16-20.61-1.74-39.98c0,0,22.1,13.91,12.42,39.98h-10.68Z" style="fill: rgb(104, 225, 253);"/></g><path class="cls-19_quality-check-42 targetColor" d="m63.36,417.25s6.82-21.85,27.67-26.07c0,0,3.97,14.15-13.41,26.07h-14.27Z" style="fill: rgb(104, 225, 253);"/><polygon class="cls-16_quality-check-42" points="49.79 416.81 53.69 442.75 77.57 442.75 80.99 416.81 49.79 416.81"/><rect class="cls-18_quality-check-42" x="141.24" y="294.29" width="93.08" height="10.32"/><g class="cls-9_quality-check-42"><rect class="cls-17_quality-check-42" x="141.24" y="294.29" width="93.08" height="10.32"/></g><rect class="cls-18_quality-check-42" x="148.39" y="294.29" width="93.08" height="10.32"/></g><g id="person_quality-check-42"><path class="cls-19_quality-check-42 targetColor" d="m377,432.38s3.95,6.35,10.28,5.55,9.26,4.93,4.01,7.71c-5.25,2.78-21.21-1.32-21.21-1.32l-1.93-11.5,8.85-.44Z" style="fill: rgb(104, 225, 253);"/><path class="cls-19_quality-check-42 targetColor" d="m269.9,432.38s-3.95,6.35-10.28,5.55c-6.33-.8-9.26,4.93-4.01,7.71,5.25,2.78,21.21-1.32,21.21-1.32l1.93-11.5-8.85-.44Z" style="fill: rgb(104, 225, 253);"/><path class="cls-19_quality-check-42 targetColor" d="m342.36,124.96s34.79,8.12,42.22,45.59c7.43,37.47,8,70.4,28.44,71.54s35.2-77.22,35.2-77.22l15.33,3.97s-15.87,170.33-98.78,90.84c-82.91-79.49-22.4-134.73-22.4-134.73Z" style="fill: rgb(104, 225, 253);"/><g class="cls-3_quality-check-42"><path class="cls-1_quality-check-42" d="m342.36,124.96s34.79,8.12,42.22,45.59c7.43,37.47,8,70.4,28.44,71.54s35.2-77.22,35.2-77.22l15.33,3.97s-15.87,170.33-98.78,90.84c-82.91-79.49-22.4-134.73-22.4-134.73Z"/></g><path class="cls-12_quality-check-42" d="m309.14,70.85s2.43,11.69,1.37,19.78c-.43,3.28-3.49,5.63-6.76,5.15-4.07-.59-9.39-2.57-11.45-8.67l-4.77-9.93s-2.77-6.33,3.34-11.93c6.11-5.6,17.15-1.59,18.27,5.6Z"/><polygon class="cls-12_quality-check-42" points="288.39 78.97 286.83 118.06 308.43 117.37 300.89 89.21 288.39 78.97"/><path class="cls-16_quality-check-42" d="m306.26,71.69c-2.06.35-5.86.79-11.03.46,0,0,4.32,4.72,1.29,10.85-3.03,6.12-9.34,4.36-9.34,4.36l-1.61-15.25c-.61-4.43,1.23-8.85,4.84-11.49,1.47-1.08,3.12-2.17,4.79-3.09,4.17-2.28,10.94-.12,14.52-3.54,1.57-1.5,4.19-.76,4.76,1.33,1.23,4.55,1.27,11.94-4.69,15.21-1.09.6-2.3.94-3.52,1.15Z"/><path class="cls-12_quality-check-42" d="m297.74,82.49s-.63-4.55-4.02-3.79c-3.39.76-2.52,7.34,2.22,7.4l1.8-3.61Z"/><path class="cls-12_quality-check-42" d="m310.29,78.29l3.84,4.17c.95,1.03.5,2.7-.83,3.12l-4.43,1.39,1.42-8.68Z"/><g class="cls-10_quality-check-42"><path class="cls-14_quality-check-42" d="m302.8,95.3s-4.05-.34-7.43-3.31c0,0,1.15,7.07,9.78,13.16l-2.35-9.84Z"/></g><path class="cls-19_quality-check-42 targetColor" d="m286.83,118.06l21.6-.68s57.88.92,61.48,43.1c3.6,42.18-21.09,75.1-12.86,108.02l-78.55,10.03s-128.74-129.36,8.33-160.46Z" style="fill: rgb(104, 225, 253);"/><g class="cls-9_quality-check-42"><path class="cls-17_quality-check-42" d="m276.54,146.53s26.58,21.27,8.91,59.4c-17.67,38.13-6.78,50.24,19.71,43.19,26.49-7.04,37.2-35.7,37.2-35.7l13.01,40.3s-.26,8.78,1.69,14.76l-78.55,10.03-2.84-2.98-35.56-50.01,36.44-79Z"/></g><rect class="cls-18_quality-check-42" x="323.97" y="174.01" width="58.28" height="78.82" transform="translate(39.08 -54.2) rotate(9.29)"/><g class="cls-9_quality-check-42"><path class="cls-17_quality-check-42" d="m364.76,219.23s9.14,10.33,1.63,17.53c-7.51,7.2-18.1,15.81-18.1,15.81l-26.35-4.54,42.81-28.8Z"/></g><rect class="cls-16_quality-check-42" x="347.28" y="169.48" width="23.57" height="12.28" transform="translate(33.06 -55.66) rotate(9.29)"/><path class="cls-19_quality-check-42 targetColor" d="m278.91,175.16c13.33-25.75-17.83-51.55-40.86-33.94-12.09,9.25-23.46,22.63-27.08,41.36-8.74,45.26-3.6,85.9,27.26,97.73,30.86,11.83,111.62-46.81,111.62-46.81l-10.29-16.97s-70.47,50.41-87.44,15.95c-10.68-21.69,15.3-35.11,26.79-57.32Z" style="fill: rgb(104, 225, 253);"/><g class="cls-3_quality-check-42"><path class="cls-1_quality-check-42" d="m278.91,175.16c13.33-25.75-17.83-51.55-40.86-33.94-12.09,9.25-23.46,22.63-27.08,41.36-8.74,45.26-3.6,85.9,27.26,97.73,30.86,11.83,111.62-46.81,111.62-46.81l-10.29-16.97s-70.47,50.41-87.44,15.95c-10.68-21.69,15.3-35.11,26.79-57.32Z"/></g><path class="cls-12_quality-check-42" d="m342.36,221.14s10.33-10.74,19.97-5.36c9.64,5.38-12.47,17.73-12.47,17.73l-7.5-12.37Z"/><path class="cls-16_quality-check-42" d="m278.5,278.52l-14.88,154.39,15.12-.08s23.53-114.72,49.76-129.64c26.23-14.92,28.55-34.7,28.55-34.7l-78.55,10.03Z"/><path class="cls-16_quality-check-42" d="m357.05,268.49l25.46,164.41-14.36-.07s-20.94-105.89-59.29-130.67l48.19-33.67Z"/><path class="cls-12_quality-check-42" d="m450.81,165.55s-1.74-18.26,8.48-17.06,4.26,20.36,4.26,20.36l-12.73-3.3Z"/><rect class="cls-18_quality-check-42" x="440.88" y="113.27" width="12.08" height="35.17" transform="translate(.83 264.5) rotate(-33)"/><g class="cls-9_quality-check-42"><rect class="cls-17_quality-check-42" x="440.88" y="113.27" width="12.08" height="35.17" transform="translate(.83 264.5) rotate(-33)"/></g><rect class="cls-16_quality-check-42" x="454.31" y="133.68" width="18.58" height="45.18" transform="translate(-10.32 277.69) rotate(-33)"/><path class="cls-18_quality-check-42" d="m396.19,54.84c-18.35,11.92-23.57,36.46-11.65,54.82,11.92,18.35,36.46,23.57,54.82,11.65,18.35-11.92,23.57-36.46,11.65-54.82-11.92-18.35-36.46-23.57-54.82-11.65Zm36.83,56.71c-12.97,8.42-30.3,4.73-38.72-8.23-8.42-12.97-4.73-30.3,8.23-38.72,12.97-8.42,30.3-4.73,38.72,8.23,8.42,12.97,4.73,30.3-8.23,38.72Z"/><path class="cls-19_quality-check-42 targetColor" d="m415.71,103.13c-.73,0-1.42-.32-1.9-.88l-8.74-10.23c-.9-1.05-.77-2.63.28-3.52,1.05-.9,2.63-.77,3.52.28l6.41,7.51,10.64-18.97c.68-1.2,2.2-1.63,3.4-.96,1.2.68,1.63,2.2.96,3.4l-12.4,22.09c-.4.71-1.12,1.18-1.94,1.26-.08,0-.16.01-.24.01Z" style="fill: rgb(104, 225, 253);"/></g></svg>