<svg id="_0124_team_presentation_2" xmlns="http://www.w3.org/2000/svg" xmlns:xlink="http://www.w3.org/1999/xlink" viewBox="0 0 500 500" data-imageid="team-presentation-2-32" imageName="Team Presentation 2" class="illustrations_image" style="width: 188px;"><defs><style>.cls-1_team-presentation-2-32{fill:url(#linear-gradient);}.cls-1_team-presentation-2-32,.cls-2_team-presentation-2-32,.cls-3_team-presentation-2-32,.cls-4_team-presentation-2-32,.cls-5_team-presentation-2-32,.cls-6_team-presentation-2-32,.cls-7_team-presentation-2-32,.cls-8_team-presentation-2-32,.cls-9_team-presentation-2-32,.cls-10_team-presentation-2-32,.cls-11_team-presentation-2-32,.cls-12_team-presentation-2-32,.cls-13_team-presentation-2-32,.cls-14_team-presentation-2-32,.cls-15_team-presentation-2-32,.cls-16_team-presentation-2-32,.cls-17_team-presentation-2-32,.cls-18_team-presentation-2-32,.cls-19_team-presentation-2-32,.cls-20_team-presentation-2-32,.cls-21_team-presentation-2-32{stroke-width:0px;}.cls-2_team-presentation-2-32{opacity:.18;}.cls-2_team-presentation-2-32,.cls-16_team-presentation-2-32{isolation:isolate;}.cls-2_team-presentation-2-32,.cls-16_team-presentation-2-32,.cls-21_team-presentation-2-32{fill:#68e1fd;}.cls-3_team-presentation-2-32{fill:url(#linear-gradient-11-team-presentation-2-32);}.cls-4_team-presentation-2-32{fill:url(#linear-gradient-12-team-presentation-2-32);}.cls-5_team-presentation-2-32{fill:url(#linear-gradient-13-team-presentation-2-32);}.cls-6_team-presentation-2-32{fill:url(#linear-gradient-10-team-presentation-2-32);}.cls-7_team-presentation-2-32{fill:url(#linear-gradient-14-team-presentation-2-32);}.cls-22_team-presentation-2-32{fill:none;stroke:#fff;stroke-linecap:round;stroke-miterlimit:10;stroke-width:2.72px;}.cls-8_team-presentation-2-32{fill:url(#linear-gradient-4-team-presentation-2-32);}.cls-9_team-presentation-2-32{fill:url(#linear-gradient-2-team-presentation-2-32);}.cls-10_team-presentation-2-32{fill:url(#linear-gradient-3-team-presentation-2-32);}.cls-11_team-presentation-2-32{fill:url(#linear-gradient-8-team-presentation-2-32);}.cls-12_team-presentation-2-32{fill:url(#linear-gradient-9-team-presentation-2-32);}.cls-13_team-presentation-2-32{fill:url(#linear-gradient-7-team-presentation-2-32);}.cls-14_team-presentation-2-32{fill:url(#linear-gradient-5-team-presentation-2-32);}.cls-15_team-presentation-2-32{fill:url(#linear-gradient-6-team-presentation-2-32);}.cls-16_team-presentation-2-32{opacity:.48;}.cls-17_team-presentation-2-32{fill:#231f20;}.cls-18_team-presentation-2-32{fill:#c14834;}.cls-19_team-presentation-2-32{fill:#fff;}.cls-20_team-presentation-2-32{fill:#ffb4a3;}</style><linearGradient id="linear-gradient-team-presentation-2-32" x1="863.68" y1="3616.21" x2="979.93" y2="3645.46" gradientTransform="translate(-505.96 3862.43) scale(1 -1)" gradientUnits="userSpaceOnUse"><stop offset="0" stop-color="#231f20" stop-opacity="0"/><stop offset="1" stop-color="#231f20"/></linearGradient><linearGradient id="linear-gradient-2-team-presentation-2-32" x1="901.96" y1="3637.32" x2="924.33" y2="3637.32" xlink:href="#linear-gradient-team-presentation-2-32"/><linearGradient id="linear-gradient-3-team-presentation-2-32" x1="862.53" y1="3650.18" x2="889.59" y2="3650.18" xlink:href="#linear-gradient-team-presentation-2-32"/><linearGradient id="linear-gradient-4-team-presentation-2-32" x1="633.96" y1="3626.76" x2="583.77" y2="3625.16" xlink:href="#linear-gradient-team-presentation-2-32"/><linearGradient id="linear-gradient-5-team-presentation-2-32" x1="561.2" y1="3632.52" x2="614.25" y2="3624.26" xlink:href="#linear-gradient-team-presentation-2-32"/><linearGradient id="linear-gradient-6-team-presentation-2-32" x1="606.62" y1="3610.45" x2="576.47" y2="3707.16" xlink:href="#linear-gradient-team-presentation-2-32"/><linearGradient id="linear-gradient-7-team-presentation-2-32" x1="582.82" y1="3704.93" x2="595.49" y2="3703.42" xlink:href="#linear-gradient-team-presentation-2-32"/><linearGradient id="linear-gradient-8-team-presentation-2-32" x1="-11554.99" y1="-3374.66" x2="-11476.8" y2="-3343.15" gradientTransform="translate(-2160.87 11913.55) rotate(117.67) scale(1 -1)" gradientUnits="userSpaceOnUse"><stop offset=".02" stop-color="#fff" stop-opacity="0"/><stop offset=".32" stop-color="#fff" stop-opacity=".39"/><stop offset=".68" stop-color="#fff" stop-opacity=".68"/><stop offset="1" stop-color="#fff"/></linearGradient><linearGradient id="linear-gradient-9-team-presentation-2-32" x1="-11498.31" y1="-3346.52" x2="-11452.52" y2="-3333.12" xlink:href="#linear-gradient-8-team-presentation-2-32"/><linearGradient id="linear-gradient-10-team-presentation-2-32" x1="568.75" y1="3762.6" x2="614.55" y2="3775.98" gradientTransform="translate(-437.7 3926.85) rotate(1.12) scale(1 -1)" xlink:href="#linear-gradient-8-team-presentation-2-32"/><linearGradient id="linear-gradient-11-team-presentation-2-32" x1="715.43" y1="3695.39" x2="837.23" y2="3501.08" gradientTransform="translate(-505.96 3862.43) scale(1 -1)" xlink:href="#linear-gradient-8-team-presentation-2-32"/><linearGradient id="linear-gradient-12-team-presentation-2-32" x1="783.3" y1="3573.42" x2="809.45" y2="3573.42" gradientTransform="translate(-505.96 3862.43) scale(1 -1)" xlink:href="#linear-gradient-8-team-presentation-2-32"/><linearGradient id="linear-gradient-13-team-presentation-2-32" x1="816.31" y1="3556.58" x2="816.99" y2="3579.88" gradientTransform="translate(-505.96 3862.43) scale(1 -1)" xlink:href="#linear-gradient-8-team-presentation-2-32"/><linearGradient id="linear-gradient-14-team-presentation-2-32" x1="710.37" y1="3547.14" x2="839.91" y2="3547.14" gradientTransform="translate(-471 3866.26) scale(1 -1)" xlink:href="#linear-gradient-team-presentation-2-32"/></defs><path id="background_team-presentation-2-32" class="cls-2_team-presentation-2-32 targetColor" d="M150.14,59.94c-33.58,29.1-48.28,75.06-80.43,105.73-16.36,15.61-37.37,27.49-47.69,47.62-5.86,11.39-7.59,24.54-8.17,37.39-1.78,41.62,8.31,82.79,18.7,123.18,5.42,21.07,11.26,42.79,24.8,59.82,14.83,18.62,37.32,29.55,59.97,36.84,66.18,21.29,138.4,16.13,205.92-.44,36.87-9.06,73.53-21.75,104.2-44.13,30.67-22.38,54.92-55.59,59.86-93.23,5.97-45.55-16.21-89.58-37.72-130.19l-42.59-80.4c-25.71-48.53-57.02-89.83-116.82-90.17-48.08-.28-101.03-5.83-140.04,27.99Z" style="fill: rgb(104, 225, 253);"/><g id="character_2_team-presentation-2-32"><path class="cls-17_team-presentation-2-32" d="M373.44,141.75c.27,1.9.34,3.8.43,5.71.22,1.92-.36,3.85-1.61,5.33-.96.76-1.98,1.46-3.04,2.07-2.03,1.59-3.16,4.07-3.05,6.64.13,2.55,1.16,4.98,2.91,6.84,2.37,2.62,6.16,4.24,9.53,3.16,1.59-.51,3.21-1.57,4.78-1.01,2.2.77,2.25,3.87,3.66,5.73,1.16,1.53,3.19,2.1,5.06,2.53,4.01.92,8.07,1.66,12.15,2.19.56.03,1.11.19,1.59.48.43.37.76.84.97,1.37,1.1,2.52,2.72,4.79,4.76,6.64,2.07,1.84,4.9,2.55,7.59,1.92,2.63-.81,4.62-3.72,3.86-6.33,3.24,2.85,8.03,3.08,11.53.56,3.33-2.79,3.89-7.71,1.27-11.17-1.9-2.21-4.91-3.11-7.81-3.47-2.91-.13-5.81-.47-8.67-1.02-2.81-.77-5.57-2.62-6.33-5.42-1.05-3.8,1.67-7.39,3.49-10.83,3.7-7.14,3.88-15.59.51-22.89-.51-1.24-1.27-2.35-2.25-3.26-1.87-1.56-4.45-1.76-6.84-2.2-5.06-.95-9.84-3.28-14.94-4.18-.04,0-22.62-1.81-19.55,20.6Z"/><path class="cls-17_team-presentation-2-32" d="M355.93,337.78c1-25.94,3.59-51.79,7.76-77.42,13.56,1.52,27.23,1.82,40.84.87.13,4.3,3.09,9.86,3.21,14.14,1.27,43.12,2.53,86.46-2.9,129.26-.04.63-.21,1.25-.52,1.81-.94,1.44-3.33,1.14-4.47-.15-1.01-1.41-1.58-3.1-1.61-4.83-.73-6.33-8.77-45.55-8.86-55.25-.19-18.98-2.53-43.32-6.4-34.16-1.58,3.8-9.78,19.61-10.41,23.65-1.81,11.77,4.36,23.05,8.77,34.16,3.91,9.82,6.53,20.08,9.12,30.36-1.75.86-3.7,1.25-5.64,1.11-12.97-19.61-29.8-40.2-28.9-63.56Z"/><path class="cls-19_team-presentation-2-32" d="M374.12,183.36c-1.31,2.38-2.16,4.98-2.53,7.67-4.4,23.68-4.29,47.94-4.16,72.03,0,2.72.14,5.73,2.05,7.65,1.59,1.62,4.02,2.02,6.33,2.24,5.26.51,10.55.43,15.79-.23,2.4-.14,4.73-.87,6.79-2.11,3.4-2.38,4.5-6.86,5.2-10.96,2.96-17.52,2.92-35.43,2.25-53.07-.43-11.11,2.39-29.31-12.73-30.2-6.76-.39-15.12.67-18.99,6.98Z"/><path class="cls-1_team-presentation-2-32" d="M389.2,273.62l2.9-56.54s-3.62-2.18-4.35-3.87c-.73-1.7-6.33-1.45-6.33-1.45l2.06-8.24,12.2,6.79,4.83,9.19-2.18,51.11s-6.48,4.71-9.13,3.01Z"/><path class="cls-21_team-presentation-2-32 targetColor" d="M421.38,285.41c.39.72.56,1.54.48,2.35-.26.81-.79,1.5-1.49,1.97-8.86,7.14-21.1,7.59-32.45,7.74,12.55-39.28,3-77.08,9.59-117.79,5.88.52,9.49,1.67,11.79,7.11,2.94,6.95,5.88,13.92,7.35,21.33,2.53,13.09-3.68,24.04-3.56,37.03.13,13.83,2.94,27.49,8.29,40.25Z" style="fill: rgb(104, 225, 253);"/><path class="cls-9_team-presentation-2-32" d="M396,217.66s1.42,6.79,4.64,9.7c3.23,2.91,11.92,9.34,11.92,9.34l5.81-16.11-6.45-7.1-15.92,4.16Z"/><path class="cls-20_team-presentation-2-32" d="M377.42,156.21c.16,4.26,1.57,8.77,4.93,11.39,2.16,1.66,4.88,2.42,7.59,2.1.36-.09.73-.09,1.09,0,.73.29.84,1.27.81,2.07l-.16,5.76c-.19.64.17,1.31.8,1.5.18.06.38.07.56.03,2.69.18,6,0,7.27-2.33.34-.73.55-1.51.63-2.32l1.57-10.12c.69-3.76,1.08-7.57,1.16-11.39.1-3.4-.57-6.78-1.95-9.89-1.41-3.15-4-5.63-7.21-6.91-2.05-.61-4.18-.91-6.33-.9-3.53-.15-8.79-.25-9.59,4.1-.48,2.66-.3,5.54-.59,8.24-.42,2.87-.62,5.77-.59,8.67Z"/><path class="cls-17_team-presentation-2-32" d="M407.18,150.96c-.11.71-.45,1.36-.97,1.86-.87.56-1.98.56-2.85,0-.83-.57-1.6-1.22-2.32-1.92-1.23-1.01-2.7-1.68-4.28-1.92-1.11-.05-2.21-.26-3.26-.63-1-.51-1.72-1.81-1.11-2.75.3,1.27-.91,2.39-2.15,2.53-1.27.05-2.53-.2-3.68-.72-2.14-.55-4.2-1.37-6.14-2.43-1.86-1.27-3.33-3.35-2.91-5.52.44-2.4,2.87-3.8,5.06-4.9,2.16-1.14,4.46-1.99,6.84-2.53,10.65-2,20.36,8.45,17.76,18.93Z"/><path class="cls-21_team-presentation-2-32 targetColor" d="M412.05,180.18c3.38,2.77,6.02,6.32,7.71,10.35,1.67,4.01,3,8.16,3.99,12.39l1.7,6.5c1.05,3.27,1.57,6.69,1.53,10.12-.06,3.47-1.78,6.7-4.62,8.69-3.8,2.29-8.63,1.15-12.65-.66-5.17-2.37-9.83-5.74-13.7-9.91-1.18-1.17-2.17-2.53-2.91-4.02-1.37-3.1-.99-6.69,1-9.43.3-.63,1.06-.89,1.69-.59.08.04.15.08.22.14,4.42,1.57,8.74,3.39,12.94,5.45-1.01-3.33-2.54-6.47-4.53-9.32-3.49-5.77-6.69-11.98-7.12-18.71-.19-2.96,2.66-4.97,6.33-4.09,3.47.87,5.64.94,8.44,3.09Z" style="fill: rgb(104, 225, 253);"/><path class="cls-21_team-presentation-2-32 targetColor" d="M391.64,176.23c-7.26-.66-14.17.34-19.71,5.06-4.15,3.82-7.48,8.45-9.78,13.6-2.53,5.06-4.4,10.35-6.87,15.41l-21.08-16.28c-.67-.64-1.52-1.05-2.44-1.18-1.73-.08-2.87,1.73-3.62,3.3-1.84,2.2-1.54,5.48.66,7.32.02.01.03.03.05.04,6.08,6.59,12.83,12.53,20.15,17.71,2.28,1.8,4.91,3.09,7.73,3.8,3.09.47,6.25-.06,9.02-1.49,2.75-1.45,5.33-3.21,7.68-5.24,3.8-3.09,7.59-6.33,10.18-10.46,4.45-7-4.3-18.47,8.02-31.63" style="fill: rgb(104, 225, 253);"/><path class="cls-21_team-presentation-2-32 targetColor" d="M366.29,204.07c-5.15,25.74-12.48,50.99-21.91,75.48,6.46,6.89,15.17,11.24,24.56,12.27-.62-10.51.43-21.07,1.48-31.55,2.25-22.63,7.79-32.2,13.11-53.47-6.62,4.31-18-3.45-20.36,4.09" style="fill: rgb(104, 225, 253);"/><path class="cls-10_team-presentation-2-32" d="M357.13,223.41c-.29.15-.67.42-.53.73.06.09.13.17.23.23,1.66.95,3.74.76,5.21-.46,1.41-1.24,2.4-2.89,2.82-4.72.09-.51.31-.99.63-1.39.73-.53,1.66-.7,2.53-.44l9.3,1.27c.63.19,1.3.05,1.81-.37.25-.4.36-.87.32-1.34.03-2.98.87-5.9,2.43-8.44.94-1.52,2.18-3.18,1.71-4.9-.33-.95-.97-1.77-1.81-2.33-1.15-.97-2.57-1.57-4.06-1.72-2.81-.14-5.14,2.04-7,4.14-3.09,3.38-5.84,7.05-8.24,10.96-1.92,3.15-1.47,6.83-5.35,8.78Z"/><path class="cls-19_team-presentation-2-32" d="M381.13,177.9c-.01-.54-.18-1.06-.48-1.51-.35-.33-.79-.57-1.27-.67-5.48-1.68-11.16-2.66-16.89-2.9-.3-.04-.6,0-.87.14-.32.27-.51.65-.54,1.06-2.63,12.68-3.22,25.71-1.75,38.58.16,1.4.46,2.97,1.63,3.73.6.34,1.26.54,1.95.59l16.09,2.53c-.35-6.87-.17-13.76.54-20.61.42-3.54,1.45-6.96,1.73-10.55.25-3.46.2-6.94-.15-10.4Z"/><path class="cls-17_team-presentation-2-32" d="M391.67,406.18c1,2.74,1.43,5.66,1.27,8.58l-4.23.19c-.07-1.81-.87-3.51-2.21-4.72-1.59,2.85-3.31,5.83-6.15,7.44-2.36,1.13-4.97,1.65-7.59,1.51-3,0-6-.23-8.97-.68-.51-.08-1.14-.32-1.11-.84.02-.19.1-.37.23-.52,4.26-6.11,12.22-8.25,18.1-12.82.93-.79,1.92-1.51,2.96-2.14.92-.48,5.3-2.15,6.22-1.44.54.38,1.15,4.48,1.48,5.44Z"/><path class="cls-17_team-presentation-2-32" d="M407.07,411.3l1.78,4.8c.85,2.29,1.71,4.85.78,7.11-1.17,2.37-3.69,3.77-6.33,3.49-3.91-.42-7.08-3.36-7.78-7.24-.18-1.69-.11-3.39.19-5.06l1.44-10.65c0-.3.1-.59.28-.84.38-.44,1.09-.33,1.66-.16,1.91.52,5.34.73,6.53,2.53,1,1.43.78,4.3,1.44,6.02Z"/><path class="cls-20_team-presentation-2-32" d="M388.2,196.37c-.47-.64-1-1.22-1.58-1.76-1.62-1.4-3.69-3.38-5.79-3.8,0,0,0,3.9-.85,3.63-1.45-.48-8.26-.4-9.4.62-.64.65-.96,1.54-.9,2.44.18,2.36,1.46,4.49,3.47,5.74,1.99,1.23,4.16,2.12,6.43,2.66l13.03,3.8c.44.16.9.25,1.37.27,1.13,0,2.12-.73,2.44-1.81.57-1.99-2.01-3.97-3.11-5.36l-5.1-6.43Z"/><path class="cls-20_team-presentation-2-32" d="M324.15,186.51c-.82-.2-1.68.14-2.15.85-.11.31-.25.6-.4.89-.47.47-1.13.68-1.78.58h-6.48c-1.59,0-3.42.11-4.39,1.38-.82,1.27-.73,2.92.23,4.09.96,1.12,2.22,1.95,3.63,2.39,2.47.95,5.08,1.48,7.72,1.57,3.38.1,9.25,2.96,10.03-1.76.57-3.4-2.95-9.29-6.4-9.98Z"/></g><g id="character_1_team-presentation-2-32"><path class="cls-20_team-presentation-2-32" d="M72.34,427.01c-.11,1.48.02,2.97.39,4.42.09.59.6,1.02,1.19,1.01,7.15,1.22,14.43,1.56,21.66,1.01.44,0,.88-.11,1.27-.33.37-.25.47-.75.23-1.13-.12-.12-.26-.21-.42-.27-2.83-1.3-5.73-2.46-8.68-3.47-2.43-.84-5.06-1.71-6.47-3.8-.84-1.49-1.24-3.19-1.16-4.9,0-3,.42-5.98.53-8.97,0-.72,0-1.59-.67-1.95-.4-.18-.84-.22-1.27-.11-1.27.2-3.69.43-4.72,1.34s-.89,3.34-1.04,4.69c-.48,4.09-.76,8.26-.85,12.44Z"/><path class="cls-20_team-presentation-2-32" d="M108.82,429.38c9.07.82,18.21.59,27.23-.68,0-.95-.89-1.64-1.73-2.1-3.4-1.87-7.4-2.38-10.98-3.9-.97-.34-1.84-.92-2.53-1.68-.77-1.22-1.15-2.64-1.11-4.09l-.71-10.56c.02-.51-.14-1.02-.44-1.43-.46-.37-1.05-.52-1.63-.42-1.66.08-5.33.38-6.48,1.75-1.15,1.37-.58,4.98-.68,6.62l-.92,16.5Z"/><path class="cls-17_team-presentation-2-32" d="M70.4,311.88c3.8,33.5,2.81,67.35.72,100.99,3,.49,6.04.68,9.08.57.78.04,1.56-.16,2.23-.58.71-.77,1.08-1.8,1.02-2.85l8.31-107.4c11.43,34.94,16.53,71.63,15.04,108.36,4.28.63,8.65.1,12.65-1.54,5.36-37.47-.96-75.52-7.27-112.84l-4.64-27.44c.23,1.34-23.56-.68-25.52-.87-5.33-.53-17.05-2.8-20.8,2.42-3.11,4.36.86,11.63,2.64,15.73,3.48,8.1,5.68,16.69,6.53,25.47Z"/><path class="cls-20_team-presentation-2-32" d="M129.55,262.03c1.54,2.32,4.12,3.74,6.91,3.8,2.29.22,4.61.07,6.86-.42.46-.05.88-.27,1.19-.61.54-.76-.2-1.77-.95-2.33-.79-.59-1.63-1.1-2.53-1.51-.51-.19-.99-.47-1.42-.81-.42-.37-.58-.96-.39-1.49.62-.13,1.27,0,1.87-.19s1.27-.71,1.09-1.33c-.18-.62-.86-.86-1.48-.99-3.62-.72-7.59-1.09-10.3-3.59-1.08-.99-2.1-1.97-3.67-1.35-1.17.46-1.92,1.63-1.83,2.88.11,1.2,1.27,2.35,1.82,3.34.85,1.59,1.79,3.12,2.83,4.59Z"/><path class="cls-21_team-presentation-2-32 targetColor" d="M108.77,213.87c.28-.14-.16-.57-.4-.37s-.15.58,0,.89l2.53,8.19c.35,1.27.81,2.51,1.39,3.69.91,1.54,2,2.96,3.25,4.24,5.83,6.48,11.22,13.34,16.6,20.24.31.31.49.73.49,1.16-.1.37-.32.7-.63.94l-5.43,4.97c-.55.82-1.66,1.03-2.48.48-.08-.06-.16-.12-.23-.19l-15.94-10.12c-2.37-1.34-4.5-3.05-6.33-5.06-2.86-3.82-3.67-8.8-2.16-13.32,1.56-4.48,4.63-8.26,8.69-10.7" style="fill: rgb(104, 225, 253);"/><path class="cls-8_team-presentation-2-32" d="M108.77,213.87c.28-.14-.16-.57-.4-.37s-.15.58,0,.89l2.53,8.19c.35,1.27.81,2.51,1.39,3.69.91,1.54,2,2.96,3.25,4.24,5.83,6.48,11.22,13.34,16.6,20.24.31.31.49.73.49,1.16-.1.37-.32.7-.63.94l-5.43,4.97c-.55.82-1.66,1.03-2.48.48-.08-.06-.16-.12-.23-.19l-15.94-10.12c-2.37-1.34-4.5-3.05-6.33-5.06-2.86-3.82-3.67-8.8-2.16-13.32,1.56-4.48,4.63-8.26,8.69-10.7"/><path class="cls-21_team-presentation-2-32 targetColor" d="M63.58,140.71c-.98.05-1.91.42-2.66,1.05-.88,1.14-1.27,2.58-1.08,4.01-.02.31.03.61.14.9.19.38.52.67.91.84,2.25,1.04,4.88.88,6.98-.43.69-.33,1.22-.91,1.49-1.62.1-.71-.03-1.44-.37-2.07l-.49-1.27c-.75-1.78-3.24-1.63-4.93-1.4Z" style="fill: rgb(104, 225, 253);"/><path class="cls-18_team-presentation-2-32" d="M62.78,140.65c-.19-1.84-1.03-3.55-2.38-4.82-.95-.76-2.04-1.33-3.21-1.67-.93-.38-1.93-.51-2.92-.38-1.17.33-2.18,1.05-2.88,2.04-2.23,2.76-3.32,6.26-3.05,9.79.15,1.76.63,3.48.89,5.23.39,4.01.17,8.05-.66,11.99,1.26-.39,2.41-1.09,3.34-2.02l-.44,3.34,2.28-.72c-.52.57,0,1.59.78,1.76.78.08,1.56-.19,2.13-.73.89-.74,1.68-1.59,2.37-2.53,1.03-1.28,1.85-2.71,2.43-4.24.95-2.88.37-5.96.52-8.86.15-2.9,1.23-5.25.82-8.17Z"/><path class="cls-21_team-presentation-2-32 targetColor" d="M112.61,267.42c.22,1.58-.72,3.1-2.24,3.61-9.72,5.31-21.32,5.64-32.4,5.34-8.01-.23-16.45-.81-23.23-4.9l-.47-.28c3.69-8.08,5.66-16.84,7.59-25.49,2.47-11.11,8.96-20.75,5.23-31.48-2.17-6.24-4.34-12.48-6.52-18.71-.96-2.31-1.48-4.78-1.54-7.29l.09-1c.4-2.02,1.23-3.92,2.44-5.58.93-1.68,2.39-3.01,4.15-3.8.95-.28,1.93-.43,2.92-.43,3.61-.16,7.2-.33,10.8-.47,7.59-.33,15.47.23,20.7,5.69,3.59,3.8,4.95,9.03,6.2,14.08,1.25,4.65,2.1,9.4,2.53,14.2.22,2.84.05,5.7-.51,8.49-.78,3.8-2.4,7.34-3.34,11.05-.3,1.1-.5,2.22-.62,3.35-1.15,11.59,8.2,22,8.21,33.62Z" style="fill: rgb(104, 225, 253);"/><path class="cls-14_team-presentation-2-32" d="M73.99,225.39c0,5.06-9.53,49.24-9.53,49.24l-9.73-3.16-.47-.28c3.69-8.08,5.66-16.84,7.59-25.49,2.47-11.11,8.96-20.75,5.23-31.48-2.17-6.24-4.34-12.48-6.52-18.71-.96-2.31-1.48-4.78-1.54-7.29l.09-1,11.88,22.77s3,10.32,3,15.4Z"/><path class="cls-15_team-presentation-2-32" d="M108.39,219.43c-.78,3.8-2.4,7.34-3.34,11.05-7.35.1-16.45-.23-20.04-2.21-2.73-1.49-29.1-27.83-22.63-43.23,1.92-4.53,8.65-5.59,13.11-3.52,2.16,1.01,12.65,25.2,15.73,27.83,1.96,1.71,9.45,1.87,17.71,1.56.21,2.85.03,5.72-.53,8.53Z"/><path class="cls-20_team-presentation-2-32" d="M140.23,207.9c1.76-1.94,3.3-4.78,5.57-4.91.26-.05.54.04.71.25.43.56,0,1.49-.15,2.29-.12,1.12.56,2.17,1.63,2.53.94.11,1.89-.02,2.76-.39,2.04-.54,4.19-.41,6.15.35.34,3.42-1.3,6.73-4.23,8.53-2.53,1.42-5.35,1.27-8.08,1.05l-9.07-.65c-1.82-.13-6.19-2.53-3.3-5.39.9-.9,2.53-.56,3.62-.87,1.69-.52,3.21-1.49,4.4-2.8Z"/><path class="cls-17_team-presentation-2-32" d="M85.54,425.64c.63.03,1.25.18,1.82.46,3.78,1.52,7.4,3.42,10.8,5.66.91.59,1.92,1.68,1.27,2.61-.46.5-1.13.75-1.8.67-7.72.32-15.46-.22-23.06-1.59-2.05-.39-4.62-1.16-3.53-3.71.98-1.85,2.82-3.09,4.91-3.3,1.66-.14,3.07.92,4.73.86s3.1-1.62,4.86-1.64Z"/><path class="cls-17_team-presentation-2-32" d="M121.89,424.41c-1.47-.11-2.91-.51-4.23-1.19-2.43-1.2-5.1-1.84-7.81-1.86-.66-.04-1.3.24-1.72.75-.17.31-.27.67-.28,1.02l-.43,4.1c-.1.5-.08,1.02.06,1.52.4,1.11,1.76,1.49,2.92,1.68,7.31,1.25,14.72,1.83,22.14,1.73,2.25,0,4.85-.29,6.12-2.15.14-.18.23-.4.25-.63,0-.44-.37-.8-.72-1.09-2.64-2.09-5.55-3.81-8.64-5.14-1.27-.52-2.68-1.42-3.95-.76s-1.85,2.01-3.73,2.01Z"/><path class="cls-21_team-presentation-2-32 targetColor" d="M82.47,221.46c5.38,2.92,23.95.99,30.06.63,6.11-.35,18.74-3.8,19.19-4.34s.1-4.2.18-4.73c.28-1.96.35-3.95.19-5.93-7.88,0-37.6,3.44-41.75-.24-3.02-2.67-13.56-26.86-15.73-27.83-4.45-2.07-11.2-1.02-13.11,3.5-6.58,15.46,18.23,37.49,20.96,38.94Z" style="fill: rgb(104, 225, 253);"/><path class="cls-20_team-presentation-2-32" d="M103.66,158.29c.3.45.54.94.71,1.45.3,1.38-.84,2.53-1.53,3.8-1.43,2.53-1.27,6-3.57,7.73-1.45.92-3.21,1.23-4.88.86-1.67-.38-3.36-.65-5.06-.82-.24-.02-.49.02-.71.14-.28.29-.4.7-.33,1.1.06,2.07.37,2.75.43,4.82,0,0,1.85,5.93-4.09,5.93-3.8,0-9.51-6.09-9.1-6.33,1.58-.85,1.27-5.81.97-9.13-.48-4.03-.62-8.08-.4-12.13.1-2.38.83-4.69,2.13-6.69.96-1.35,2.3-2.38,3.38-3.64,1.08-1.59,2.29-3.09,3.62-4.48,2.01-1.42,4.41-2.19,6.87-2.2,2.21-.36,4.47.02,6.44,1.08,6.26,4.1,2.19,13.13,5.12,18.52Z"/><path class="cls-18_team-presentation-2-32" d="M92.06,139.22c.14,1.36.6,2.66,1.35,3.8.87,1.74,2,3.35,3.34,4.76,2.97,2.79,7.28,3.62,11.07,2.14.33-.07.61-.28.77-.57.07-.25.07-.51,0-.76-.76-3.48-1.57-6.95-2.43-10.43-.09-.56-.31-1.1-.63-1.57-.45-.48-1-.85-1.62-1.06-1.51-.75-3.11-1.29-4.77-1.62-3.73-.59-7.2,1.34-7.09,5.31Z"/><path class="cls-18_team-presentation-2-32" d="M99.49,140.36c.97-3.95-.6-8.09-3.93-10.41-3.37-2.25-7.77-2.15-11.77-1.53-3.32.4-6.53,1.42-9.48,2.99-8.57,4.91-11.53,15.83-6.62,24.4.14.24.28.47.42.7,2.06,3.25,4.45,6.33,6.6,9.6.28.4.75.89,1.19.66.2-.14.35-.34.42-.57.6-1.67,1.63-3.14,2.99-4.28,1.1-.78,2.44-1.16,3.56-1.92,1.32-.75,2.24-2.03,2.53-3.52.15-1.75.14-3.53.2-5.29,0-1.05.16-2.1.44-3.11.92-2.87,3.91-4.54,6.77-5.55,2.86-1.01,5.96-1.75,8.15-3.8"/><path class="cls-20_team-presentation-2-32" d="M81.15,152.43c-1.27-.83-2.91-.83-4.18,0-.45.37-.8.84-1.04,1.37-.59,1.4-.67,2.95-.24,4.4.43,1.47,1.18,2.83,2.18,4,.24.33.55.61.91.81.68.24,1.43.17,2.05-.2,1.27-.67,3.33-.11,3.8-1.47.44-1.15-.11-4.86-.61-6.03-.69-1.19-1.68-2.18-2.87-2.87Z"/><path class="cls-13_team-presentation-2-32" d="M80.93,157.5c-.14-.59.11-1.27-.1-1.81-.1-.24-.25-.46-.43-.65-.24-.34-.62-.55-1.04-.58-.39.08-.72.36-.86.73-.37.92-.5,1.92-.39,2.91-.01.39.04.78.15,1.15.35.73.94,1.32,1.67,1.67.26.2.57.33.9.37.19,0,.38-.06.54-.15.7-.38,1.09-1.16.99-1.95-.24-.71-1.23-.84-1.43-1.7Z"/></g><g id="graphic_daa_team-presentation-2-32"><rect class="cls-16_team-presentation-2-32 targetColor" x="165.35" y="129.3" width="140.06" height="166.47" style="fill: rgb(104, 225, 253);"/><rect class="cls-16_team-presentation-2-32 targetColor" x="165.35" y="129.3" width="140.06" height="166.47" style="fill: rgb(104, 225, 253);"/><path class="cls-11_team-presentation-2-32" d="M182.09,198.69c-10.69-15.22-7.01-36.21,8.2-46.9,15.22-10.69,36.21-7.01,46.9,8.2,7.25,10.32,8.12,23.82,2.26,34.99l-.1.2-29.81-15.6-27.45,19.1Z"/><path class="cls-12_team-presentation-2-32" d="M194.02,209.19c-4.75-2.49-8.85-6.07-11.93-10.46l27.45-19.14,29.81,15.64c-8.71,16.32-28.95,22.55-45.33,13.97Z"/><path class="cls-6_team-presentation-2-32" d="M243.3,180.04c-.1,5.36-1.49,10.63-4.04,15.35l-29.39-16,.66-33.64c18.49.48,33.13,15.8,32.77,34.3Z"/><path class="cls-19_team-presentation-2-32" d="M166.53,116.64h137.8c4.31,0,7.81,3.49,7.81,7.8h0c0,4.31-3.49,7.8-7.81,7.8h-137.8c-4.31,0-7.81-3.49-7.81-7.8h0c0-4.31,3.49-7.8,7.81-7.8Z"/><path class="cls-21_team-presentation-2-32 targetColor" d="M205.55,407.43h57.36c3.68,0,6.65,2.98,6.65,6.65h0c0,3.67-2.98,6.65-6.65,6.65h-57.36c-3.68,0-6.65-2.98-6.65-6.65h0c0-3.67,2.98-6.65,6.65-6.65Z" style="fill: rgb(104, 225, 253);"/><path class="cls-22_team-presentation-2-32" d="M244.89,167.06c15.29,1.47,30.66,1.89,46,1.27"/><path class="cls-22_team-presentation-2-32" d="M246.12,177.83c11.07-.46,22.17-.37,33.22.28.48,0,1.14.25,1.06.73"/><path class="cls-22_team-presentation-2-32" d="M248.16,191.17c2.69-.34,5.41-.23,8.06.32,11.07,1.57,22.23,2.49,33.41,2.76"/><path class="cls-22_team-presentation-2-32" d="M185.52,234.65c2.09-1.89,5.19-2,8.01-2,27.94,0,55.91.48,83.91,1.45"/><path class="cls-22_team-presentation-2-32" d="M187.64,255.68c2.53-3.4,7.5-5.79,10.97-3.34.87.62,1.56,1.48,2.44,2.1.97.66,2.14.98,3.31.9,2.16-.15,4.02-1.62,6.14-2.11s5.06.85,4.58,2.97c1.91-1.52,4.2-2.47,6.62-2.77-.56.67-.47,1.67.2,2.23.04.04.09.07.13.1.76.46,1.64.69,2.53.63,6.96.24,13.93-.34,20.76-1.73"/><path class="cls-22_team-presentation-2-32" d="M192.22,273.07c6.1-1.83,12.5-3.68,18.72-2.39,2.53.52,4.93,1.53,7.48,1.57,3.5.06,6.97-1.72,10.4-1.02,1.49.5,3.01.91,4.55,1.2,3.93.22,7.26-4,11.13-3.28,1.47.28,2.73,1.27,4.21,1.49,1.87.32,3.72-.57,5.47-1.33,3.37-1.45,6.91-2.45,10.54-2.99.73-.16,1.49-.13,2.2.1,1.06.44,1.58,1.63,2.38,2.53,2.04,2.16,5.48,1.83,8.4,1.34l13.07-2.25"/><rect class="cls-21_team-presentation-2-32 targetColor" x="230.5" y="293.11" width="5.82" height="116.82" style="fill: rgb(104, 225, 253);"/></g><g id="projector_team-presentation-2-32"><rect class="cls-21_team-presentation-2-32 targetColor" x="302.69" y="321" width="9.43" height="97.88" style="fill: rgb(104, 225, 253);"/><rect class="cls-21_team-presentation-2-32 targetColor" x="271.36" y="313.64" width="97.55" height="10.74" style="fill: rgb(104, 225, 253);"/><path class="cls-3_team-presentation-2-32" d="M333.07,278.92c.9,4.07,1.66,8.34.67,12.39-2.53,10.12-14.59,14.58-24.95,14.18-9.69-.38-18.98-3.54-28.1-6.93-42.31-15.8-82.34-37.13-119.04-63.44-1.48-1.06-3.07-2.3-3.42-4.1-.49-2.53,1.63-4.69,3.58-6.33,23.95-20.35,49.98-38.13,77.64-53.05,21.71-11.7,59.67-25.92,66.97,7.79s19.28,65.89,26.64,99.48Z"/><path class="cls-21_team-presentation-2-32 targetColor" d="M299.37,276.94c-5.86-4.77-15.81-2.96-19.64,3.57-1.09,1.98-1.81,4.15-2.11,6.39-.67,4.31-.28,9.05,2.39,12.49,3.35,4.34,9.92,5.54,14.89,3.21,4.98-2.56,8.23-7.57,8.54-13.16.21-5.55-1.74-10.96-5.44-15.09" style="fill: rgb(104, 225, 253);"/><path class="cls-4_team-presentation-2-32" d="M299.37,276.94c-5.86-4.77-15.81-2.96-19.64,3.57-1.09,1.98-1.81,4.15-2.11,6.39-.67,4.31-.28,9.05,2.39,12.49,3.35,4.34,9.92,5.54,14.89,3.21,4.98-2.56,8.23-7.57,8.54-13.16.21-5.55-1.74-10.96-5.44-15.09"/><path class="cls-21_team-presentation-2-32 targetColor" d="M350.36,303.57c.01,2.49-.53,4.96-1.59,7.21-.54,1.06-1.24,2.02-2.09,2.86h-71.45c-2.39-1.4-3.93-4.14-4.25-9.3-.24-3.63.91-11.89,2.99-14.84,4-5.66,9.43-4.53,16.87-4.92,13.5-.68,26.99-1.01,40.49-.97,3.43,0,6.98.09,10.12,1.51,6.55,3.01,9.2,11.21,8.92,18.46Z" style="fill: rgb(104, 225, 253);"/><path class="cls-5_team-presentation-2-32" d="M331.27,283.6c3.39-.11,6.79.15,10.12.8,6.62,1.59,9.27,5.93,9.01,9.78-.05,1.42-.62,2.77-1.59,3.8-3.26,3.34-11.51,4.23-18.61,4.14-13.22-.15-26.1-2.21-39.37-2.07-10.51.11-18.98,1.42-19.81-5.48-.24-1.92.91-6.33,2.99-7.86,4-3,9.43-2.4,16.87-2.61,13.44-.35,26.91-.51,40.41-.49Z"/><rect class="cls-7_team-presentation-2-32" x="239.37" y="313.86" width="129.54" height="10.53"/><rect class="cls-21_team-presentation-2-32 targetColor" x="291.81" y="413.81" width="31.17" height="6.53" rx="3.26" ry="3.26" style="fill: rgb(104, 225, 253);"/></g></svg>